<svg xmlns="http://www.w3.org/2000/svg" style="display:block" viewBox="0 0 500 500"><path d="M0 0h500v500H0V0z" style="fill:#3e4241"/><path d="M0 0h21c.838 7.47 1.674 14.941 2.509 22.412l.852 7.611c.411 3.664.82 7.328 1.229 10.993l.382 3.391a469.865 469.865 0 0 1 1.761 19.327C27.76 65.965 27.76 65.965 29 67c3.15-33.487 3.15-33.487 6-67h22c-.708 12.658-2.37 25.13-4.063 37.688-.422 3.156-.844 6.312-1.263 9.468-.26 1.95-.521 3.9-.785 5.85l-.354 2.653-.314 2.328C49.945 60.16 49.945 60.16 50 63l2.875-1.5C56 60 56 60 58 60v-2l5-1V0h45v21H86v22h21v21H86v25h24v22l-16 1-1 3c-1.707 1.098-1.707 1.098-3.813 2.063l-2.082.972L85 119c-1.336.662-2.67 1.327-4 2v2c-6 3-6 3-8.004 3.95-4.964 2.382-8.86 5.133-12.973 8.823l-2.148 1.915-2.008 1.824C54 141 54 141 51 142c-.046 9.205-.082 18.41-.104 27.616-.01 4.275-.024 8.549-.047 12.823-.022 4.124-.034 8.248-.039 12.371-.003 1.575-.01 3.15-.021 4.724a944.261 944.261 0 0 0-.016 6.608l-.014 3.802c.005 3.23.005 3.23 2.241 6.056h5c1.988-4.16 2.27-7.588 2.319-12.177l.03-2.13c.031-2.31.048-4.62.065-6.931.019-1.607.038-3.215.059-4.822.051-4.22.09-8.44.128-12.66.04-4.31.091-8.62.141-12.93.097-8.45.18-16.9.258-25.35h22v95H61l-1-8-1.75 2.813C53.07 236.151 47.551 235.968 39 235c-8.286-3.037-10.55-11.116-12-19-.43-5.024-.489-10.036-.512-15.074a1971.87 1971.87 0 0 1-.158-15.35c-.03-3.787-.076-7.575-.121-11.363-.086-7.404-.153-14.809-.209-22.213l-4 1v2h-2l-.011 2.255c-.038 7.047-.095 14.093-.173 21.139-.04 3.622-.072 7.243-.087 10.865-.015 3.502-.05 7.003-.097 10.504a584.453 584.453 0 0 0-.026 5.917c-.19 11.723-2.671 20.837-13.669 26.57-10.23 4.943-23.498 4.421-33.12-1.621-9.482-7.255-10.428-17.991-10.313-29.2l-.005-3.52c.002-2.438.014-4.877.034-7.316.03-3.715.021-7.429.008-11.144.006-2.381.015-4.763.025-7.144l-.008-3.334c.11-9.053 2.155-16.009 6.442-23.971h-3c.564-3.27 1.5-4.826 4-7l-2.5-2.5c-3.244-3.92-3.292-6.51-2.5-11.5 2.438-2.938 2.438-2.938 5-5l1-1a61.798 61.798 0 0 1 4.375-.125l2.398-.008C-20 118-20 118-17 119a1227.537 1227.537 0 0 0 8-29l5-1 1.125 3.75C-1.228 97.185.978 98.506 5 101c1.44 1.772 2.688 3.591 3.922 5.512C9.945 108.165 9.945 108.165 12 109c.054-1.916.093-3.833.125-5.75l.07-3.234c.035-2.894.035-2.894-1.135-4.658-1.598-3.554-1.807-7.264-2.208-11.1l-.296-2.631c-.208-1.865-.413-3.73-.616-5.595-.53-4.885-1.083-9.767-1.635-14.65l-.332-2.949c-1.097-9.68-2.374-19.33-3.717-28.98C.888 19.545 0 10.025 0 0z" transform="translate(163 104)" style="fill:#2e3333"/><path d="M0 0h244v2h-2l-.773 1.757c-1.353 2.473-2.864 4.139-4.852 6.134l-2.14 2.148L232 14.25l-2.234 2.258-2.141 2.133-1.96 1.954C224 22 224 22 222 22l-.613 1.613c-1.987 3.42-4.732 5.853-7.575 8.575-4.5 4.385-8.51 8.807-12.253 13.867C195.193 54 195.193 54 191 54v2h-2l-1 4 7 1-1 2-2.938-.254C173.718 61.29 173.718 61.29 157 65c-3.774.78-7.595 1.292-11.406 1.855-4.161.645-7.702 1.491-11.594 3.145-2.838.83-5.703 1.56-8.563 2.313-6.371 1.716-12.365 3.737-18.4 6.434-2.985 1.232-5.937 2.17-9.037 3.066-7.074 2.14-13.861 4.803-20.688 7.624l-3.47 1.409c-5.048 2.07-10.013 4.185-14.862 6.69-3.591 1.846-7.194 3.338-10.984 4.734-8.591 3.222-16.722 7.345-24.934 11.418-2.346 1.16-4.693 2.32-7.042 3.475a890.997 890.997 0 0 0-4.337 2.147l-1.995.982-1.725.856C5.377 122.27 2.675 123.108 0 124V0z" style="fill:#282e2e"/><path d="M0 0c2.38 3.57 2.915 6.897 3.656 11.035l.448 2.404c.472 2.54.934 5.082 1.396 7.623.463 2.512.928 5.022 1.393 7.533.299 1.617.596 3.235.892 4.853.89 4.865 1.836 9.712 2.9 14.542C11 50 11 50 11 55h23v-7l3-1 1-3h2v-2h2l.313-2.313c.767-3 1.127-3.98 3.687-5.687l7-1v22l4 1-5 5 2 2-2 2c-.37 2.227-.37 2.227-.414 4.79l-.117 2.85-.094 2.985-.117 3.008c-.095 2.455-.18 4.91-.258 7.367l-2.313-.938C41.4 82.181 33.725 81.308 27 86c-6.809 6.809-8.44 14.183-8.512 23.531l-.054 2.656c-.054 2.771-.088 5.542-.122 8.313-.033 1.89-.067 3.781-.103 5.672-.085 4.61-.152 9.218-.209 13.828l-7 4-.044-3.789c-.059-4.678-.136-9.355-.218-14.033-.034-2.017-.062-4.035-.084-6.052-.034-2.915-.087-5.829-.142-8.743l-.02-2.694c-.222-9.661-1.944-19.573-10.68-25.064C-6.232 82.282-13.217 81.499-18 86c-1.545 2.584-2.823 5.23-4 8h-1V83h-22v95l4 1c-12.234 12.479-12.234 12.479-17.5 15.375-2.376 1.545-3.516 2.76-5.25 4.938-2.872 3.509-6.002 5.624-9.82 8.015-2.753 1.894-5.11 4.022-7.555 6.297-3.796 3.514-7.324 5.965-11.875 8.375l-2.5 2.25c-3.285 2.3-5.581 2.057-9.5 1.75l-1-3-4-1-1-5h-2v-3h-2l-.875-1.938c-.953-2.214-.953-2.214-3.125-3.062l1-4-6-3v-2c-5.62 3.452-10.068 6.673-14 12h2v8c-4.692 0-4.692 0-7-3v-2a287.012 287.012 0 0 0-4.938 2.25l-2.777 1.266c-2.605 1.692-2.981 2.46-3.285 5.484h2c1 4 1 4-8 15l-2-1v-2l-5-1v-2h-2c-.924-6.6-.326-9.798 5.137-13.805 2.258-1.448 4.562-2.815 6.863-4.195 4.636-3.454 4.636-3.454 8-8l-4 1 1-2h2v-2h-2v-2h-2l-1-5-3-1a107.239 107.239 0 0 1-5.063-6.625l-1.353-1.832c-2.915-4.087-4.47-7.646-5.584-12.543-4.113.903-6.478 2.25-9.313 5.25-8.66 9.154-20.902 14.646-32.277 19.672-2.393 1.02-2.393 1.02-4.476 2.281-2.407.992-3.493.511-5.934-.203l3.578-1.645 4.672-2.167 2.355-1.08c3.8-1.77 7.043-3.578 10.395-6.108h3l1-3c1.75-1.395 1.75-1.395 4-2.813l2.45-1.574L-188 182c6.98-4.403 6.98-4.403 13-10-3.557 0-3.852.511-6.313 2.875-3.048 2.75-5.64 4.138-9.687 5.125 4-5.571 4-5.571 8-6v-2c3.509-3.096 6.492-4.742 11-6l1.32 1.645C-162.15 177.89-152.943 179.05-140 178c3.835-1.013 7.376-2.403 11-4l3-1c1.117-1.84 1.117-1.84 2-4l1.05-1.877c3.527-6.842 3.536-13.256 3.524-20.838l.065-5.92c.026-2.74.033-5.478.04-8.217.018-4.822.065-9.645.111-14.468.023-2.563.038-5.126.047-7.689l.021-3.49.01-3.081C-119 101-119 101-118 99h2v-2l5-2 .011 2.38c.038 7.457.095 14.914.173 22.371.04 3.833.071 7.665.087 11.497.015 3.71.05 7.418.097 11.127.015 1.404.023 2.808.024 4.213-.076 17.297-.076 17.297 9.608 30.412 2.797 1.399 5.193 1.245 8.313 1.313l3.425.113c5.894-.77 8.603-4.388 11.262-9.426h1v9h22V83h-22a9222.663 9222.663 0 0 1 .104 27.904c.01 4.319.024 8.638.047 12.957.022 4.17.034 8.338.039 12.508.003 1.59.01 3.179.021 4.768.015 2.229.017 4.457.016 6.686l.014 3.842c-.25 3.453-.694 6.788-3.241 9.335-4.638.113-5.496.037-8-4-.36-3.29-.36-3.29-.34-7.247l-.002-2.189c.002-2.381.026-4.761.049-7.142a2603.982 2603.982 0 0 1 .087-18c.03-4.438.044-8.875.06-13.313.032-8.703.083-17.406.146-26.109l1 3c4.69-3.203 4.69-3.203 8.938-6.938C-73.684 74.684-68.89 71.02-63 69l3-2h3v-2a506.47 506.47 0 0 1 4.313-3l2.425-1.688C-48 59-48 59-45 59l1-4h16l1-2 5-1v3H0V0z" transform="translate(301 160)" style="fill:#2f3534"/><path d="M0 0c25.714-.28 25.714-.28 36.676-.342 7.48-.042 14.959-.091 22.438-.186 6.03-.076 12.06-.118 18.09-.136 2.3-.013 4.6-.038 6.901-.076a576.06 576.06 0 0 1 9.667-.055l2.882-.076C103.32-.798 106.685 1.091 110 7v2h-3v3h4l1-2c21.039 25.846 21.039 25.846 20 30l-2.325.5c-17.633 3.835-34.572 8.475-51.616 14.462-3.099 1.052-6.216 2-9.352 2.933-6.947 2.11-13.683 4.666-20.438 7.314-2.029.795-4.06 1.583-6.093 2.37-6.063 2.354-12.094 4.75-18.017 7.442-4.357 1.975-8.763 3.842-13.159 5.729l-2.887 1.246-2.738 1.176-2.477 1.065C1 85 1 85 0 85V0z" style="fill:#3b3f3f"/><path d="M0 0c1.478 2.957 1.06 5.742 1 9h2v4c5.377-2.247 10.26-4.597 15-8V3c5.775 2.887 4.175 7.85 4.333 13.89.157 6.26.254 12.52.34 18.78.068 4.75.16 9.497.308 14.245.142 4.591.219 9.179.252 13.772.024 1.743.07 3.486.141 5.229C23.926 83.096 20.29 88.684 9 97a137.604 137.604 0 0 0-4.262 4.094l-1.76 1.742-1.666 1.664-1.794 1.758-1.717 1.71-1.495 1.483C-5.89 112.054-6.93 114.788-8 118c-4.906 0-6.92-1.569-10.125-5.25l-2.07-2.328c-1.799-2.414-2.83-4.588-3.805-7.422h-2l.035 2.563c.137 17.265.137 17.265-3.035 20.437-1.455 3.188-2.77 6.4-4.023 9.672-2.763 7.01-6.127 13.122-10.207 19.418-1.817 2.807-1.817 2.807-2.875 5.676-1.092 2.727-2.45 3.685-4.895 5.234v5l-4 2-1-4h-2l-1 2-1-2-2 1 1-6h-2l-3-5-3 2 .688-1.75c.596-2.36.596-2.36-1.188-4.25-1.87-2.493-1.71-3.21-.5-6l2-2-.75-1.563c-.391-3.816 1.775-6.333 3.75-9.437.982-1.644 1.96-3.29 2.938-4.938A761.55 761.55 0 0 1-54 118l-1-1-4 6c-1.474-4.421.943-6.882 3.188-10.625.842-1.458 1.682-2.918 2.519-4.379l1.217-2.114c4.088-7.152 5.856-13.947 7.17-22.038.75-3.18 1.545-5.245 2.984-8.09 2.525-5.414 2.374-10.438 2.172-16.317l-.055-3.056C-39.85 53.92-39.917 51.46-40 49l2 4c4.568 0 4.676-.248 7.5-3.438 2.405-2.705 3.879-3.998 7.5-4.562.773-2.982 1.412-5.976 2-9l-5 1v-3l-4 1c-1.05-8.4-1.05-8.4 3-12h4l2-4 5 1 1-6h6l.367 1.863.508 2.45.492 2.425C-7.055 23.253-7.055 23.253-5 26v3h2l-1-3c4.368-5.084 7.148-7.86 14-8l-8-1-1-4-3-1v-2h-2C-5.887 0-5.887 0 0 0z" transform="translate(478 249)" style="fill:#3b403e"/><path d="M0 0h22v112H0l-1-7-1.172 1.496-1.578 1.942-1.547 1.933C-9.283 114.184-15.827 113.59-21 113c-9.876-4.938-12.692-13.423-13.114-23.798a736.62 736.62 0 0 1-.124-10.222l-.025-3.799c-.014-2.647-.025-5.293-.032-7.94-.009-2.697-.03-5.394-.062-8.09-.042-3.912-.059-7.822-.069-11.733l-.053-3.622c.023-8.849 1.12-18.039 8.541-23.858l2.036-1.66c5.398-3.626 12.573-3.193 18.402-.903C-3 19-3 19-1 21L0 0z" transform="translate(353 226)" style="fill:#d7d7d7"/><path d="M0 0c2.38 3.57 2.915 6.897 3.656 11.035l.448 2.404c.472 2.54.934 5.082 1.396 7.623.463 2.512.928 5.022 1.393 7.533.299 1.617.596 3.235.892 4.853.89 4.865 1.836 9.712 2.9 14.542C11 50 11 50 11 55h23v-7l3-1 1-3h2v-2h2l.313-2.313c.767-3 1.127-3.98 3.687-5.687l7-1v22l4 1-5 5 2 2-2 2c-.37 2.227-.37 2.227-.414 4.79l-.117 2.85-.094 2.985-.117 3.008c-.095 2.455-.18 4.91-.258 7.367l-2.313-.938C41.4 82.181 33.725 81.308 27 86c-6.809 6.809-8.44 14.183-8.512 23.531l-.054 2.656c-.054 2.771-.088 5.542-.122 8.313-.033 1.89-.067 3.781-.103 5.672-.085 4.61-.152 9.218-.209 13.828l-7 4-.044-3.789c-.059-4.678-.136-9.355-.218-14.033-.034-2.017-.062-4.035-.084-6.052-.034-2.915-.087-5.829-.142-8.743l-.02-2.694c-.222-9.661-1.944-19.573-10.68-25.064C-6.232 82.282-13.217 81.499-18 86c-1.545 2.584-2.823 5.23-4 8h-1V83h-22v95h-1l-1-94c-5.688 3.865-5.688 3.865-6.76 8.98l-.05 2.29.037 2.468-.032 2.632a578.232 578.232 0 0 0 0 8.587 2301.86 2301.86 0 0 1-.041 5.965c-.036 5.226-.037 10.452-.03 15.678.001 5.336-.031 10.672-.062 16.007-.053 10.465-.07 20.929-.062 31.393h-1V83h-22a9222.663 9222.663 0 0 1 .104 27.904c.01 4.319.024 8.638.047 12.957.022 4.17.034 8.338.039 12.508.003 1.59.01 3.179.021 4.768.015 2.229.017 4.457.016 6.686l.014 3.842c-.25 3.453-.694 6.788-3.241 9.335-4.638.113-5.496.037-8-4-.36-3.29-.36-3.29-.34-7.247l-.002-2.189c.002-2.381.026-4.761.049-7.142a2603.982 2603.982 0 0 1 .087-18c.03-4.438.044-8.875.06-13.313.032-8.703.083-17.406.146-26.109l1 3c4.69-3.203 4.69-3.203 8.938-6.938C-73.684 74.684-68.89 71.02-63 69l3-2h3v-2a506.47 506.47 0 0 1 4.313-3l2.425-1.688C-48 59-48 59-45 59l1-4h16l1-2 5-1v3H0V0z" transform="translate(301 160)" style="fill:#424343"/><path d="M0 0h23c.803 3.8 1.604 7.6 2.399 11.401.399 1.904.802 3.806 1.205 5.708C28.68 27.054 30.326 36.955 32 47l1-47h21v111H32c-1.265-6.28-2.53-12.56-3.79-18.842-.43-2.134-.859-4.27-1.29-6.404-.62-3.075-1.237-6.15-1.854-9.227l-.58-2.873-.546-2.728-.478-2.376C22.888 65.381 22.455 62.188 22 59l-1 52H0V0z" transform="translate(280 104)" style="fill:#fe65c3"/><path d="M0 0c2.917.7 5.77 1.516 8.625 2.438l2.352.746C13 4 13 4 15 6v4l-3-1V7L5 6l1.129 3.691 1.434 4.871.748 2.424C9.757 21.976 10.426 25.848 9 31c-3.644 2.43-5.712 2.162-10 2v2c4.474 1.491 8.27 1.952 12.5-.375 2.363-4.135 1.3-8.07.5-12.625 2.997 1.327 4.93 2.702 7.063 5.188l1.472 1.667c4.924 7.208 4.92 13.665 4.899 22.2l.015 3.806c.007 2.651.007 5.302-.003 7.953a839.66 839.66 0 0 0 .038 10.123c.023 3.247.016 6.495.012 9.743l.034 3.637c-.094 11.467-2.902 20.36-13.593 25.933-10.23 4.943-23.498 4.421-33.12-1.621-9.482-7.255-10.428-17.991-10.313-29.2l-.005-3.52c.002-2.438.014-4.877.034-7.316.03-3.715.021-7.429.008-11.144.006-2.381.015-4.763.025-7.144l-.008-3.334c.135-11.18 2.606-20.996 12.57-27.323 5.477-2.803 9.855-3.767 16.06-3.71l3.855.027L4 18l-.875-3.176L2 10.688l-.578-2.092C.622 5.642 0 3.074 0 0z" transform="translate(157 224)" style="fill:#d6d6d6"/><path d="M0 0v116h-75c3.375-5.625 3.375-5.625 5.262-8.332l1.2-1.729c.405-.578.81-1.156 1.225-1.751l1.26-1.811C-63.006 98-63.006 98-61 98l.215-1.64c1.105-3.321 3.097-5.447 5.347-8.11l2.504-2.984L-51 83l4 1c0 4.277-.706 5.56-3 9 3.575-2.959 4.811-5.68 6.094-10 .906-2 .906-2 2.797-3.86 2.545-2.582 3.793-5.122 5.359-8.39l1.805-3.723.948-1.973a460.787 460.787 0 0 1 3.192-6.425l1.1-2.18 2.128-4.206C-25.21 49.518-23.966 46.897-23 44h-3c-1.056-3.91-.887-6.254.438-10.063C-24.41 30.584-24 28.648-24 25l-5 9h-4c.303-4.547 1.296-7.843 3.313-11.938C-26.3 15.01-24.706 7.595-23 0c4.194 1.398 3.806 2.826 5 7 .258 2.86.235 5.693.188 8.563l-.002 2.248c-.031 3.846-.26 7.45-1.186 11.189l1 1c.341-2.624.675-5.249 1-7.875l.291-2.348c.59-5.015.847-9.845.486-14.894C-15.928 2.39-14.888 1.568-13 0l1.813.625C-6.582 1.415-5.992-.998 0 0z" transform="translate(500 384)" style="fill:#303738"/><path d="M0 0h138v2h-2l-.773 1.757c-1.353 2.473-2.864 4.139-4.852 6.134l-2.14 2.148L126 14.25l-2.234 2.258-2.141 2.133-1.96 1.954C118 22 118 22 116 22l-.613 1.613c-1.987 3.42-4.732 5.853-7.575 8.575-4.501 4.387-8.509 8.815-12.261 13.87C92.19 50.265 88.472 54.136 83 55c-5.094-1.118-5.814-3.537-8-8-2.666-1.933-4.878-2.96-8-4l3-1v-2c-13.442-1.823-26.478-2.865-40-1l-1.95-2.5c-.912-1.167-1.824-2.334-2.738-3.5l-1.477-1.887a612.43 612.43 0 0 0-8.25-10.289l-1.715-2.092a913.658 913.658 0 0 0-3.277-3.96C6.666 9.995 3.475 5.211 0 0z" transform="translate(106)" style="fill:#383d3b"/><path d="M0 0h21c.838 7.47 1.674 14.941 2.509 22.412l.852 7.611c.411 3.664.82 7.328 1.229 10.993l.382 3.391a469.865 469.865 0 0 1 1.761 19.327C27.76 65.965 27.76 65.965 29 67c3.15-33.487 3.15-33.487 6-67h22c-.75 13.521-2.534 26.886-4.25 40.313-.474 3.74-.946 7.48-1.419 11.221l-.952 7.53A6922.951 6922.951 0 0 0 46.063 94l-.64 5.263c-.476 3.912-.95 7.825-1.423 11.737H13l-1-14-2-4c-.464-2.924-.84-5.801-1.148-8.742l-.296-2.631c-.208-1.865-.413-3.73-.616-5.595-.53-4.885-1.083-9.767-1.635-14.65l-.332-2.949c-1.097-9.68-2.374-19.33-3.717-28.98C.888 19.545 0 10.025 0 0z" transform="translate(163 104)" style="fill:#fc65c2"/><path d="M0 0h22l.06 6.745c.067 7.349.145 14.697.228 22.045.05 4.456.096 8.911.134 13.367.037 4.3.083 8.598.136 12.897.019 1.641.034 3.283.045 4.924.017 2.297.046 4.592.078 6.888l.04 3.964c.037 3.327.037 3.327 2.279 6.17h5c1.988-4.16 2.27-7.588 2.319-12.177l.03-2.13c.031-2.31.048-4.62.065-6.931.019-1.607.038-3.215.059-4.822.051-4.22.09-8.44.128-12.66.04-4.31.091-8.62.141-12.93.097-8.45.18-16.9.258-25.35h22v95H33l-1-8-1.75 2.813C25.07 97.151 19.551 96.968 11 96c-6.442-2.361-9.263-7.726-11-14-.174-2.773-.254-5.44-.227-8.208v-2.427c0-2.63.016-5.259.032-7.888l.008-5.49c.008-4.804.028-9.607.05-14.411.02-4.907.03-9.814.04-14.72C-.078 19.235-.042 9.617 0 0z" transform="translate(191 243)" style="fill:#d8d8d8"/><path d="M0 0c5.838 6.103 7.307 10.798 7.227 19.095v2.426c0 2.635-.016 5.27-.032 7.905l-.008 5.494c-.008 4.812-.028 9.624-.05 14.435-.02 4.914-.03 9.827-.04 14.74C7.078 73.732 7.042 83.366 7 93h-22l-.076-6.837c-.083-7.448-.172-14.896-.263-22.344-.056-4.516-.109-9.033-.158-13.55-.048-4.356-.1-8.714-.156-13.07-.02-1.664-.04-3.328-.056-4.992-.024-2.327-.054-4.654-.086-6.982l-.017-2.092c-.046-2.984-.236-5.277-1.188-8.133-7.123.994-7.123.994-8 5a183.37 183.37 0 0 0-.205 7.042l-.03 2.159a2428.15 2428.15 0 0 0-.081 7.06l-.063 4.898c-.056 4.296-.105 8.591-.153 12.887-.05 4.384-.106 8.768-.161 13.151C-25.801 75.798-25.902 84.4-26 93h-22V-2h22l1 9 1.688-3.313C-18.317-4.85-7.88-5.496 0 0z" transform="translate(304 245)" style="fill:#d8d8d8"/><path d="M0 0h45v21H23v22h21v21H23v25h24v22H0V0z" transform="translate(226 104)" style="fill:#fb65c1"/><path d="M0 0c3.84 6.095 3 11.657 3 19h-23l-1-9c-1.699-1.699-3.723-1.114-6-1-2.163 2.163-1.066 6.404-.75 9.25 1.04 2.428 2.39 2.594 4.75 3.75C-4.615 34.247 6.198 44.806 4 68 1.058 78.258-5.657 84.174-15.902 86.527-28.061 88.383-38.656 87.816-47 78l-1.688-1.875c-3.407-5.517-3.585-11.279-3.437-17.563L-52 51h23c.438 7.375.438 7.375.568 9.693.194 3.779.194 3.779 1.432 7.307 5.139.693 5.139.693 7-3 1.226-12.462-8.409-18.596-17.563-25.438C-49.14 30.646-53.758 21.797-52 7c7.733-21.267 38.373-22.899 52-7z" transform="translate(115 252)" style="fill:#d6d6d6"/><path d="M0 0c4.309 5.655 3.208 12.2 3 19h-22l-2-9c-1.699-1.699-3.723-1.114-6-1-2.163 2.163-1.066 6.404-.75 9.25 1.046 2.44 2.36 2.563 4.75 3.75C-5.645 33.499 6.204 43.751 4.287 65.947c-1.317 9.43-7.694 16.443-16.35 19.928C-23.697 89.216-36.52 87.715-46 80c-5.275-6.594-6.318-13.275-6.125-21.438L-52 51h23c.438 7.938.438 7.938.568 10.441-.106 3.58-.106 3.58 1.432 6.559 4.339.442 4.339.442 7-3 1.255-12.757-8.942-18.861-18.125-26C-49.102 30.263-53.49 22.323-52 8c2.324-8.68 9.87-15.195 18.383-17.566C-20.285-11.776-9.307-10.071 0 0z" transform="translate(435 252)" style="fill:#d7d7d7"/><path d="M0 0h45v21H23v22h21v21H23v25h18l-1.875 7.625-.578 2.366-.477 1.923-.476 1.936c-.76 2.748-1.692 5.445-2.594 8.15H0V0z" transform="translate(112 104)" style="fill:#fc65c2"/><path d="M0 0h48v21H35v90H13V21H0V0z" transform="translate(341 104)" style="fill:#fe65c3"/><path d="M0 0c2 1 2 1 2.875 3.375C4.135 6.315 5.339 7.315 8 9v2l2.25-1.375A89.434 89.434 0 0 1 17 6c-.576 3.339-1.59 4.691-4 7l-1 3h3v2l3 1 1 2-1.68 1.46c-.724.633-1.449 1.264-2.195 1.915l-2.18 1.898A91.238 91.238 0 0 0 9 30l13 1v22h-1V32h-48v21h13v68l-8 3c-2.054 3.018-2.054 3.018-3 6h-2v2l-2.438 1.563c-3.226 3.07-3.311 5.086-3.562 9.437h-1V32l2 2a646.912 646.912 0 0 0 3.938-3.813l2.214-2.144C-23.792 26.045-23.792 26.045-23 23c1.322-.69 2.657-1.352 4-2a91.545 91.545 0 0 0 4.293-4.027l2.408-2.4 2.486-2.51 2.522-2.499 2.396-2.404 2.193-2.199C-.792 3.013-.792 3.013 0 0z" transform="translate(368 72)" style="fill:#444647"/><path d="M0 0c4.279 2.14 6.222 4.483 9 8.188.97 1.266 1.942 2.531 2.914 3.796l1.524 1.995c3.074 3.978 6.25 7.875 9.414 11.781C26.055 29.741 29.062 33.818 32 38l3.625-.5C47.212 36.225 61.011 35.545 72 40v3c1.392 2.784 3.156 2.979 6 4v2l2 1v3l2.375.375C85 54 85 54 87 56h-2l-1 4 7 1-1 2-2.938-.254C69.718 61.29 69.718 61.29 53 65c-3.774.78-7.595 1.292-11.406 1.855C37.433 67.5 33.892 68.346 30 70c-2.838.83-5.703 1.56-8.563 2.313-6.371 1.716-12.365 3.737-18.4 6.434C.051 79.98-2.9 80.917-6 81.813c-7.074 2.14-13.861 4.803-20.688 7.624l-3.47 1.409c-5.048 2.07-10.013 4.185-14.862 6.69-3.623 1.862-7.265 3.373-11.085 4.788-7.985 2.996-15.563 6.728-23.208 10.489l-4.302 2.1c-3.465 1.69-6.926 3.386-10.385 5.087l-4-2 2.109-.845c8.36-3.412 16.473-7.25 24.579-11.218 13.979-6.825 13.979-6.825 19.519-9.37.671-.31 1.343-.618 2.034-.936C-48 95-48 95-45 95v-5h2l-1-4 3-1v8l1.73-.918C-21.692 83-21.692 83-15 83l-2-4-8 1-1-2 6-2-1-3 2.438.7c4.825.407 8.141-1.087 12.562-2.888a1239.57 1239.57 0 0 1 5.066-1.949l2.52-.966C17 62.169 17 62.169 22 64c-6.386 2.79-12.927 5.017-19.563 7.125l-2.395.768C-5.26 73.556-10.561 74.86-16 76l2 5 2.503-.87c3.112-1.081 6.225-2.16 9.338-3.238 1.338-.463 2.677-.928 4.014-1.393C23.424 68 23.424 68 28 68l-2-5h-2v-2h4l-1-5h-5v2l-2.684.7C-2.32 62.742-2.32 62.742-21 72v-4c9.79-3.52 19.584-6.988 29.563-9.938l2.142-.639C13.575 56.592 15.995 56 19 56c-1.702-3.503-1.702-3.503-5.238-2.719-5.831.73-11.343 2.513-16.95 4.219-2.117.637-4.236 1.273-6.355 1.906l-2.813.854c-7.131 1.996-7.131 1.996-9.644.74a78.037 78.037 0 0 1-2-5l6 2-1-4c2.832-.962 5.666-1.92 8.5-2.875l2.398-.816c3.813-1.282 7.59-2.463 11.508-3.38C7.067 46.194 7.067 46.194 10 44c5.818-2.238 11.953-3.532 18-5-.6-3.23-1.63-5.101-3.73-7.61l-1.686-2.038c-.585-.694-1.17-1.387-1.771-2.102C16.384 21.94 12.095 16.572 8 11l-5 1V9h3L0 0z" transform="translate(104)" style="fill:#2d3332"/><path d="m0 0 .438 2.875c2.766 9.373 12.146 15.557 19.59 21.21C27.46 29.775 33.187 34.975 32 45c-2.4 4-2.4 4-8 4-2.456-3.684-2.227-6.447-2.125-10.688L22 31H-2v10l-3.875 2C-11.416 46.057-16.17 49.937-21 54l-2-3 5-2v-2l9-6c-4.634 0-9.25 4.502-13 7l-2.023 1.191c-4.82 3.187-4.509 6.867-4.715 12.141-.39 3.975-1.575 5.75-4.262 8.668-2.25.875-2.25.875-4 1-2.139-2.139-2.427-3.133-3-6l-5-1-1-6-2-1c.458-4.236 1.361-5.77 5-8 .425-4.493.425-4.493-2-8h4c-.518-3.757-1.861-4.975-5-7 .436-4.617 1.738-6.046 5.563-8.563l2.718-1.796a90.273 90.273 0 0 1 7.282-3.953C-26.951 18.407-26.951 18.407-26 16c1.659-.686 3.327-1.35 5-2a92.122 92.122 0 0 0 4.25-2.813c3.838-2.636 7.762-4.886 11.902-7.011C-2.948 2.966-2.046 0 0 0z" transform="translate(64 272)" style="fill:#303637"/><path d="M0 0v22l4 1-5 5 2 2-2 2c-.37 2.227-.37 2.227-.414 4.79l-.117 2.85-.094 2.985-.117 3.008c-.095 2.455-.18 4.91-.258 7.367l-2.313-.938C-11.6 49.181-19.274 48.309-26 53c-6.809 6.809-8.44 14.183-8.512 23.531l-.054 2.656c-.054 2.771-.088 5.542-.121 8.313-.034 1.89-.068 3.781-.104 5.672-.085 4.61-.152 9.218-.209 13.828l-7 4-.044-3.789c-.059-4.678-.136-9.355-.218-14.033-.034-2.017-.062-4.035-.084-6.052-.034-2.915-.087-5.829-.142-8.743l-.02-2.694c-.184-8.027-1.347-16.371-7.18-22.314l-1.886-1.977L-53 50c1-4 1-4 1.809-5.89.312-3.445-1.693-5.206-3.746-7.86l-2.278-2.984L-59 31l1-2 11 12c4.614-1.65 4.614-1.65 5-7h-2l-1-5 8-1 2 5h2l-1-7 6 2 2.25-3c2.354-3.139 2.415-3 6.75-3v-7l3-1 1-3h2V9h2l.313-2.313C-9.928 3.717-9.504 2.727-7 1c2.36-.519 4.575-1 7-1z" transform="translate(354 193)" style="fill:#2f3332"/><path d="M0 0c6 2 6 2 7 6L5 8a89.901 89.901 0 0 0-1 6l8 3 2 11 3-3c.28 18.72.28 18.72-3 22-1.455 3.188-2.77 6.4-4.023 9.672C7.214 63.682 3.85 69.794-.23 76.09c-1.817 2.807-1.817 2.807-2.875 5.676C-4.197 84.493-5.555 85.45-8 87v5l-4 2-1-4h-2l-1 2-1-2-2 1 1-6h-2l-3-5-3 2 .688-1.75c.596-2.36.596-2.36-1.188-4.25-1.87-2.493-1.71-3.21-.5-6l2-2-.75-1.563c-.391-3.816 1.775-6.333 3.75-9.437.982-1.644 1.96-3.29 2.938-4.938A761.55 761.55 0 0 1-11 39l-1-1-4 6c-1.474-4.421.943-6.882 3.188-10.625.842-1.458 1.682-2.918 2.519-4.379l1.217-2.114c4.21-7.368 5.987-14.507 7.463-22.82C-1 1-1 1 0 0z" transform="translate(435 328)" style="fill:#2e3535"/><path d="M0 0c.306 17.181.306 17.181-4.375 20.688C-6.531 21.87-6.531 21.87-9 23c-1.961 1.078-3.92 2.162-5.875 3.25-.926.48-1.851.96-2.805 1.453-2.418 1.214-2.418 1.214-4.32 3.297h-4l-1 3c-1.85.942-3.707 1.875-5.59 2.75-4.427 2.296-8.388 5.316-12.41 8.25.51 4.314.51 4.314 4 7v4l-2 1 1 1c.769 5.638-.914 7.313-5 11l-1 3 3 1v6h5l3 6c4.239-.438 5.31-2.22 7-6 .516-2.68.769-5.273 1-8h3c.597 7.519-.856 11.74-5 18l-1-2-6 2c-2-3-2-3-2-7-5.645 1.217-7.99 2.689-12 7a82.422 82.422 0 0 1-3.5 2.75l-1.656 1.234C-59 94-59 94-64 95c0-56.69 0-56.69 20.063-68.563C-37.438 22.527-31.134 18.47-25 14c5.55-4.042 10.639-7.431 17-10 6.057-4 6.057-4 8-4z" transform="translate(64 257)" style="fill:#323939"/><path d="M0 0c.023 8.718.04 17.437.052 26.155.005 4.048.012 8.096.023 12.144.011 3.903.017 7.807.02 11.71.002 1.492.005 2.985.01 4.477.008 2.083.009 4.167.009 6.25l.006 3.6C0 67 0 67-1 68a235.648 235.648 0 0 0-1 7h-5l-2-7h-2c.458-4.493 1.43-8.006 3.25-12.115C-4.72 48.278-3.503 39.142-4 31l-.25 3.625C-5.202 43.335-8.203 51.735-11 60h-3v-6c-3.182.596-3.182.596-3.516 2.941-1.17 4.178-2.305 8.072-4.547 11.809-1.823 3.059-2.94 5.847-3.937 9.25-3-1-3-1-4-5h-3c-.25-5.625-.25-5.625 2-9h2l-.188-2.54c.22-4.067 1.502-7.197 3.188-10.835l.867-1.941A496.075 496.075 0 0 1-23 44h-3c-1.056-3.91-.887-6.254.438-10.063C-24.41 30.584-24 28.648-24 25l-5 9h-4c.303-4.547 1.296-7.843 3.313-11.938C-26.3 15.01-24.706 7.595-23 0c4.194 1.398 3.806 2.826 5 7 .258 2.86.235 5.693.188 8.563l-.002 2.248c-.031 3.846-.26 7.45-1.186 11.189l1 1c.341-2.624.675-5.249 1-7.875l.291-2.348c.59-5.015.847-9.845.486-14.894C-15.928 2.39-14.888 1.568-13 0l1.813.625C-7.186 1.311-4.768-1.06 0 0z" transform="translate(500 384)" style="fill:#2b3231"/><path d="M0 0c.48 12.29.876 24.58 1.168 36.877.139 5.711.305 11.418.536 17.127.223 5.517.37 11.032.467 16.553.05 2.097.126 4.194.23 6.29.732 15.232-1.726 22.484-14.692 31.005-2.078 1.396-3.893 2.99-5.709 4.71-8.81 7.716-18.088 14.94-27.633 21.72a100.746 100.746 0 0 0-5.047 3.937C-53 140-53 140-55 140c1.2-4.953 4.272-7.168 8.023-10.285 2.324-2.016 4.17-4.231 5.977-6.715h3v-2c1.75-1.727 1.75-1.727 4-3.625l2.25-1.914L-30 114l-1-7-3 1v-3l-3-1c-1.688-3.063-1.688-3.063-3-6-3.822 2.091-6.992 3.833-10 7h-2l-1 3-3 1-2-6 2.25-1.25c2.792-1.577 2.792-1.577 4.5-3.875 2.563-2.136 3.458-2.15 6.688-2.375 6.607-.477 9.54-3.775 12.562-9.5h1v9h23l-.111-8.075c-.116-8.808-.193-17.617-.252-26.427-.036-5.34-.086-10.68-.165-16.02-.076-5.155-.118-10.31-.136-15.465a465.805 465.805 0 0 0-.076-5.896c-.051-2.756-.058-5.51-.055-8.266l-.076-2.456C-8.81 7.574-6.073 0 0 0z" transform="translate(255 243)" style="fill:#1d2222"/><path d="m0 0 5 1 1 9h3V8c3-2 3-2 7-2l.148 2.047.227 2.703.21 2.672c.28 2.565.28 2.565 1.442 4.621 1.159 2.33 1.209 3.932 1.16 6.52l-.019 2.316C19 29 19 29 18 32c-3.072-1.097-4.008-2.012-5.813-4.813-2.015-2.936-3.01-3.88-5.874-5.687C2.77 19.177 2.1 17.32 2 13h-4l-.396 1.677C-7.22 34.974-7.22 34.974-11 43l-3-1c-4.757-.624-7.974-.67-12.063 2-2.884 4.466-3.347 8.423-.804 13.07 1.207 1.704 2.53 3.326 3.867 4.93l-1.938 1.313c-2.33 1.6-2.33 1.6-3.062 4.687h3c-.409 2.861-.9 4.84-2.438 7.313-1.478 2.543-1.838 3.935-2.312 6.75-1.067 4.951-3.8 5.959-8.25 7.937l-.25-3.875c-1.149-9.856-4.583-17.742-13.852-22.117C-57.607 61.965-63.167 61.353-69 61a74.55 74.55 0 0 1 10-7l3.043-1.824 3.145-1.864 3.167-1.886C-47 47-47 47-45 47l1-3c1.926-1.352 1.926-1.352 4.313-2.625l2.363-1.29C-35.2 39.095-33.262 38.558-31 38c1.625-1.458 1.625-1.458 3-3 3.188-1.594 6.629-1.102 10.125-1.063l2.285.014c1.863.012 3.727.03 5.59.049l.332-1.823c1.2-6.312 2.791-12.41 4.668-18.552.26-.875.52-1.75.79-2.652C-3.05 7.128-1.88 3.562 0 0z" transform="translate(157 181)" style="fill:#252929"/><path d="m0 0 6 1C3.61 4.243 1.795 6.509-2 8l1 5c3.13-.795 3.13-.795 5.25-3.25C7.305 6.695 10.444 4.44 14 2c2.318 2.218 3.57 4.14 5 7 2.004 2.526 2.004 2.526 5 3 2.006 7.022 2.006 7.022-1.375 10.5l-1.898 1.969C19 26 19 26 17 26v2l-2.25 1.188C11.802 31.13 10.069 33.164 8 36H6l-2 4H2l-2 5 3.063-2.313c2.762-2.08 5.543-4.13 8.351-6.148C19.952 30.384 28.065 23.911 36 17l6.002-5.204c1.297-1.125 2.593-2.252 3.887-3.381C55.649-.088 55.649-.088 60 1 47.766 13.479 47.766 13.479 42.5 16.375c-2.376 1.545-3.516 2.76-5.25 4.938-2.872 3.509-6.002 5.624-9.82 8.015-2.753 1.894-5.11 4.022-7.555 6.297C16.079 39.139 12.551 41.59 8 44l-2.5 2.25C2.215 48.55-.081 48.307-4 48l-1-3-4-1-1-5h-2v-3h-2l-.875-1.938c-.953-2.214-.953-2.214-3.125-3.062.613-2.962 1.254-4.38 3-7l-.563-3.375c-.509-4.22.122-5.28 2.563-8.625l.86-2.02C-10.738 7.544-9.627 7.07-7.063 6-3.772 4.494-1.848 3.232 0 0z" transform="translate(200 338)" style="fill:#2f3636"/><path d="m0 0 2 4-5 3 8-1 2 5c-3.77 1.48-7.541 2.96-11.313 4.438l-3.248 1.275-3.115 1.22-2.872 1.127C-15.35 19.75-17.17 20.39-19 21l-1-7-1 4h-2v5l-2.177.959c-17.92 7.896-17.92 7.896-35.698 16.104l-2.298 1.081c-3.734 1.78-7.32 3.65-10.827 5.856v2c-5.75 3-5.75 3-8 3V33l33.81-15.026 4.636-2.062 2.421-1.077 2.191-.975C-32.486 11-32.486 11-29 11l2 2-1-3c5.925-3.137 11.965-5.597 18.242-7.95C-6.078.65-3.988-.104 0 0z" transform="translate(82 72)" style="fill:#2e3535"/><path d="M0 0h1c.05 6.905.086 13.81.11 20.715.01 2.35.024 4.699.04 7.048.025 3.376.036 6.752.045 10.128l.032 3.185v2.972l.014 2.61C.98 49.189.273 50.819-1 53h-4v-3h-24V25h21V8l5-2c1.843-3.017 1.843-3.017 3-6z" transform="translate(278 143)" style="fill:#262b2b"/><path d="m0 0-5 5 2 2-2 2c-.37 2.227-.37 2.227-.414 4.79l-.117 2.85-.094 2.985-.117 3.008c-.095 2.455-.18 4.91-.258 7.367l-2.313-.938C-15.6 26.181-23.274 25.308-30 30c-6.809 6.809-8.44 14.183-8.512 23.531l-.054 2.656c-.054 2.771-.088 5.542-.121 8.313-.034 1.89-.068 3.781-.104 5.672-.085 4.61-.152 9.218-.209 13.828l-7 4c-.27-7.028-.5-14.057-.702-21.088a927.543 927.543 0 0 0-.248-7.172 901.05 901.05 0 0 1-.32-10.314l-.144-3.236c-.127-6.222.1-9.261 5.414-13.19l2.563-2.688C-37 28-37 28-35.028 27.063c2.265-1.187 3.332-2.374 4.902-4.375 1.993-2.44 3.964-4.485 6.438-6.437 2.906-2.034 2.906-2.034 3.687-5.25 1.618-.91 3.239-1.814 4.879-2.684C-1.227-.307-1.227-.307 0 0z" transform="translate(358 216)" style="fill:#2a2e2c"/><path d="m0 0 .918 3.36c.422 1.463.845 2.927 1.27 4.39l.595 2.21C4.2 14.757 5.622 17.205 10 20c-2.334 6.336-4.488 7.312-11 9l-.875 3.375C-3 36-3 36-5 38c-.242 1.981-.242 1.981-.125 4.125L-5 46l-5 1-1-5h-7l-1 3-8 1-1-4h-3c.673-7.848 8.826-12.543 14.379-17.402C-13.926 21.926-12.027 19.196-10 16l2.25-2.5C-5.713 11.099-5.713 11.099-6 8c0-3.733 1.787-8 6-8z" transform="translate(190 317)" style="fill:#232829"/><path d="M0 0c2.386 3.579 2.27 6.098 2.227 10.225v2.218a1229.17 1229.17 0 0 1-.032 7.256l-.008 5.032a4034.42 4034.42 0 0 1-.05 13.242c-.02 4.505-.03 9.009-.04 13.513C2.078 60.324 2.043 69.162 2 78H1L0 68l-.883 1.941C-3.643 75.766-6.599 80.291-11 85l-2-1c1.22-1.25 1.22-1.25 2.467-2.523 2.908-3.513 3.206-6.648 3.069-11.103l-.008-2.24c-.013-2.425-.062-4.85-.11-7.275-.014-1.69-.026-3.38-.036-5.071-.03-4.439-.089-8.876-.155-13.314-.103-7.117-.166-14.235-.222-21.352-.024-2.488-.063-4.975-.103-7.462a8621.13 8621.13 0 0 1-.05-4.552l-.045-2.103C-8.24.363-6.322-.275 0 0z" transform="translate(287 260)" style="fill:#212424"/><path d="m0 0 2.82.082 2.055.105-2 2 1 3 10-1-2 1c1.365 3.414 2.587 4.635 6 6h-3v6l7-1c-3.226 3.087-6.379 3.638-10.602 4.485-7.237 1.556-14.142 4.506-21.023 7.182-4.133 1.582-8.293 2.924-12.535 4.185-7.017 2.131-13.754 4.787-20.527 7.586l-3.471 1.408c-5.048 2.07-10.013 4.186-14.862 6.69-3.623 1.863-7.265 3.373-11.085 4.789C-80.215 55.507-87.793 59.24-95.437 63l-4.303 2.1c-3.465 1.69-6.926 3.387-10.385 5.088l-4-2 2.109-.846c8.36-3.411 16.473-7.249 24.579-11.217 13.979-6.826 13.979-6.826 19.519-9.371l2.034-.935c1.759-.632 1.759-.632 4.759-.632v-5h2l-1-4 3-1v8l1.73-.917c17.578-9.083 17.578-9.083 24.27-9.083l-2-4-8 1-1-2 6-2-1-3 2.438.7c4.825.407 8.141-1.086 12.562-2.887a1239.57 1239.57 0 0 1 5.066-1.95l2.52-.966C.875 12.356.875 12.356 5.875 14.188c-6.386 2.79-12.927 5.016-19.563 7.124l-2.395.769c-5.302 1.663-10.603 2.966-16.042 4.107l2 5 2.503-.87c3.112-1.082 6.225-2.16 9.338-3.238 1.338-.464 2.677-.928 4.014-1.394C7.3 18.188 7.3 18.188 11.875 18.188l-2-5h-2v-2h4l-1-5h-5v2l-2.684.699c-21.636 4.044-21.636 4.044-40.316 13.3v-4c9.79-3.52 19.584-6.987 29.563-9.937l2.142-.64c2.87-.83 5.29-1.423 8.295-1.423C1.173 2.686 1.173 2.686-2.363 3.47c-5.831.73-11.343 2.513-16.95 4.219-2.117.637-4.236 1.272-6.355 1.906l-2.813.853c-7.332 2.053-7.332 2.053-9.644-.26 3.458-1.105 6.916-2.209 10.375-3.312l2.926-.936c1.944-.62 3.889-1.236 5.835-1.848 1.872-.59 3.74-1.19 5.607-1.797C-8.81.843-4.852-.186 0 0z" transform="translate(120.125 49.813)" style="fill:#1f2526"/><path d="m0 0 .625 3.25C2.288 7.785 3.935 8.594 8 11c3.508 3.392 3.273 6.26 3 11l-5 1-1-7-7-4v9h-4l-.297 1.73a159.67 159.67 0 0 1-3.578 15.145l-.93 3.242c-1.953 4.71-4.432 7.305-9.57 7.946-5.198.394-7.157-1.335-10.625-5.063-1.607-3.215-1.62-6.524-1-10 2.438-2.938 2.438-2.938 5-5l1-1a61.798 61.798 0 0 1 4.375-.125l2.398-.008C-17 28-17 28-14 29A917.44 917.44 0 0 0-6.832 2.887C-5.421-2.01-5.649-1.13 0 0z" transform="translate(160 194)" style="fill:#d5d0d3"/><path d="M0 0v49h-35c7-12 7-12 11-12v4l4 1 1 3 2 1-.035-2.16c-.14-14.817-.14-14.817 5.035-19.84 1.208-2.624 2.084-5.253 3-8h2v-6l4-2 .438-3.438C-1.843 0-1.843 0 0 0z" transform="translate(500 451)" style="fill:#363d3d"/><path d="M0 0c4.75.625 4.75.625 7 4l3.188.063C15.982 5.487 18.38 9.814 21 15v4l-2 1c.379 3.29.379 3.29 2 6l1-10h1v77h-1l-1-64-4 1v2h-2l-1 3c-1.074-1.61-2.136-3.232-3.113-4.902C8.395 25.868 6.126 22.829 2 20l1 9c-3.778 4.58-6.032 5.977-12 5-2.438-2-2.438-2-4-4 2-1 2-1 4.938-.875C-4.69 28.987-3.97 28.625-2 26c-.632-5.562-1.929-10.826-3.379-16.23C-6 7-6 7-6 3c7.571.714 7.571.714 10 4-1.074-2.915-1.778-4.778-4-7z" transform="translate(168 227)" style="fill:#3b403f"/><path d="M0 0c2.653 3.042 3.377 4.912 3.388 8.933l.029 2.964-.019 3.185.01 3.296c.001 2.3-.004 4.6-.017 6.902-.016 3.509 0 7.017.02 10.527-.003 2.237-.007 4.475-.013 6.713l.019 3.166C3.36 51.57 2.767 55.78 0 61c-5 0-5 0-6.477-2.259-2.437-4.911-1.931-10.236-1.886-15.596l-.002-3.45c.003-2.4.012-4.8.029-7.2.023-3.68.02-7.36.014-11.04.005-2.333.012-4.665.021-6.998l-.003-3.343.03-3.095.013-2.724C-7.595-.564-5.76 0 0 0z" transform="translate(350 260)" style="fill:#292a29"/><path d="M0 0c5.75 1.75 5.75 1.75 8 4 .125 3.625.125 3.625 0 7l4-1 1-5 4 2 1-3v5h16l1 6-2.688.438c-7.775.771-7.775.771-11.312 8.562l-1.938-2.438c-3.65-3.054-5.489-3.004-10.046-3.253C6.13 17.867 5.384 16.46 4 14l-3-1 1 5h-3l.875 2.922L1 24.75l1.125 3.797C3 32 3 32 3 36l-2.746.078C-10.35 36.572-17.46 38.868-26 45v-2h-3c.44-4.248 2.191-5.334 6-7a71.815 71.815 0 0 1 6.816-.398c6.833-1.883 7.869-10.47 9.434-16.414l.813-2.967C-5.282 13.817-4.636 11.41-4 9h4V0z" transform="translate(158 206)" style="fill:#383d3d"/><path d="M0 0c2.624 2.624 2.253 3.77 2.259 7.428l.019 3.438-.012 3.728.005 3.81c.002 2.664 0 5.327-.01 7.99-.012 3.417-.005 6.833.007 10.25.009 3.254.003 6.508-.002 9.762l.012 3.728-.02 3.438-.004 3.037C2 59 2 59 0 61c-5.844.234-5.844.234-8-3-.254-2.429-.254-2.429-.259-5.342l-.019-3.307.012-3.57-.005-3.665c-.002-2.558.002-5.117.01-7.676.011-3.924 0-7.848-.012-11.772 0-2.483.003-4.966.007-7.45l-.012-3.57.02-3.306c0-.962.002-1.923.004-2.913C-7.646-.386-5.019-.201 0 0z" transform="translate(157 260)" style="fill:#232626"/><path d="M0 0h1v9l24-1c-1.124 3.373-2.073 4.151-4.75 6.375-2.488 2.096-4.846 4.183-7.063 6.563C11 23 11 23 8 23v2l-3 1a262.282 262.282 0 0 0-3 5 119.851 119.851 0 0 1-4.688 4.813l-2.449 2.394L-7 40c5.176-3.3 9.71-7.072 14.32-11.11 2.782-2.4 5.357-4.338 8.68-5.89-3.974 4.96-8.171 9.048-13.188 12.938L.835 37.495a384.366 384.366 0 0 1-14.467 10.785 100.746 100.746 0 0 0-5.047 3.938C-21 54-21 54-23 54c1.2-4.953 4.272-7.168 8.023-10.285C-12.653 41.699-10.807 39.484-9 37h3v-2c1.75-1.727 1.75-1.727 4-3.625l2.25-1.914L2 28l-1-7-3 1v-3l-3-1c-1.688-3.063-1.688-3.063-3-6-3.822 2.091-6.992 3.833-10 7h-2l-1 3-3 1-2-6 2.25-1.25c2.792-1.577 2.792-1.577 4.5-3.875 2.563-2.136 3.458-2.15 6.688-2.375C-5.955 9.023-3.023 5.725 0 0z" transform="translate(223 329)" style="fill:#272d2d"/><path d="M0 0h1c.046 8.832.082 17.663.104 26.495.01 4.1.024 8.2.047 12.301.022 3.956.034 7.91.039 11.866.003 1.511.01 3.022.021 4.533.015 2.112.017 4.224.016 6.336l.014 3.647C1 68 1 68-1 70c-4.545.455-4.545.455-7-2-.274-2.485-.274-2.485-.306-5.656l-.049-3.59-.016-3.899-.027-3.99c-.017-2.792-.025-5.584-.028-8.376a948.198 948.198 0 0 0-.088-10.713c-.037-3.41-.039-6.822-.045-10.233l-.059-3.88C-8.56 6.55-8.56 6.55-3 3h2l1-3z" transform="translate(222 251)" style="fill:#242726"/><path d="M0 0h1l1 36 4-4c2.25-.75 2.25-.75 4-1l.813-2.313c1.131-2.56 2.1-3.884 4.187-5.687l-8-1v-1h13c.913 11.75 1.434 18.857-8 27a744.352 744.352 0 0 0-4 6 140.075 140.075 0 0 1-5 5c-1.64 1.64-1.166 3.533-1.205 5.795l-.06 3.094-.051 3.365-.063 3.426c-.066 3.627-.125 7.255-.183 10.882l-.131 7.358C1.199 98.947 1.097 104.973 1 111H0V0z" transform="translate(334 104)" style="fill:#544b51"/><path d="M0 0c.56 2.157 1.029 4.223 1.313 6.438C2.26 9.973 3.224 11.563 6 14c3.33.716 6.6.929 10 1v2h-6a98.37 98.37 0 0 0 5.688 8.75C18 29 18 29 18 30l-2.012.262c-7.051 1.122-11.119 2.733-14.3 9.55L1 42H0V31h-22c4.058-4.058 8.567-6.457 13.813-8.625C-4.978 21.222-4.978 21.222-3 19c2.318-.72 4.651-1.391 7-2l-1.094-1.46L1.5 13.624.094 11.727C-1 10-1 10-1 8c-4.025 1.977-7.943 3.942-11.75 6.313-4.17 2.165-4.17 2.165-7.25.687 2-2 2-2 4.188-2.813 4.622-1.951 9.103-4.059 10.75-9L-5 1l5-1z" transform="translate(278 212)" style="fill:#292d2d"/><path d="M0 0h5l1 5H2v2h2l2 5a6940.15 6940.15 0 0 1-15.051 5.072c-1.706.574-3.411 1.149-5.116 1.726-2.456.83-4.914 1.655-7.372 2.48l-2.292.78C-27.875 23.404-31.756 24.433-36 25l-2-5c12.293-4.136 24.6-8.194 37-12-11.71 1.316-23.138 5.698-33.957 10.242-2.429.901-3.647.645-6.043-.242l-1-4c6.406-2.8 12.966-5.02 19.625-7.125l2.421-.768C-5.673 1.645-5.673 1.645 0 2V0z" transform="translate(126 56)" style="fill:#373e3e"/><path d="m0 0 1 2 2 1-2 5 5 1V7l4-2 5 5-2 2c-.643 2.069-.643 2.069-1 4h4c-.409 2.861-.9 4.84-2.438 7.313-1.478 2.543-1.838 3.935-2.312 6.75C10.183 35.014 7.45 36.022 3 38l-.25-3.875C1.576 24.167-1.909 17.931-10 12c.439-4.621 1.844-6.142 5.563-8.813l2.503-1.832L0 0z" transform="translate(116 233)" style="fill:#202626"/><path d="M0 0h6l.332 1.758C7.322 6.638 8.721 10.545 11 15c0 5.147-1.214 5.606-5.063 8.813L3.09 26.27C-.77 28.432-2.782 28.027-7 27l1-5-5 1v-3l-4 1c-1.05-8.4-1.05-8.4 3-12h4l2-4 5 1 1-6z" transform="translate(463 263)" style="fill:#313838"/><path d="M0 0c1 2 1 2 0 4l2 1c-4.272 8.04-11.17 14.228-17.578 20.559a175.601 175.601 0 0 0-10.02 10.816C-27.303 38.351-29.118 40.193-31 42l-3-1v-3l-3-1v-3l-3-1c1.679-3.968 4.083-6.87 7-10h3v2l2.25-1.375C-25 22-25 22-23.053 21.107c2.282-1.23 3.82-2.616 5.655-4.443l1.984-1.977 2.039-2.062 2.063-2.04 1.976-1.983 1.795-1.803C-5.966 4.96-4.983 3.204-4 1l1 3 3-4z" transform="translate(257 51)" style="fill:#353c3b"/><path d="M0 0h5l1 3 2 1v5h24c-9 9-9 9-14 9v2l-5.176 2.148c-2.09.92-2.09.92-4.824 2.852-4.383 0-5.378-3.076-7.875-6.313l-1.395-1.802C-7.35 8.997-7.35 8.997-6 4l2.438-.875C-.868 2.267-.868 2.267 0 0z" transform="translate(218 206)" style="fill:#3a3f3f"/><path d="M0 0c2.813 1.5 2.813 1.5 5 3-2.973 8.679-12.624 16.91-20.5 21.438-4.069 2.543-7.196 6.11-10.5 9.562-4.875-.875-4.875-.875-6-2-.562-5.054.145-6.77 4-10l2.125-2.188c3.362-3.371 6.956-6.49 10.504-9.664 3.127-2.833 6.177-5.705 8.871-8.96C-4.246-.597-2.803-.4 0 0z" transform="translate(73 334)" style="fill:#292f2f"/><path d="M0 0c1.607 3.215 1.057 6.436 1 10l-2.938 1.813C-5.23 13.71-5.23 13.71-6 17h4c.767 11.969.767 11.969-4 17-2.25.875-2.25.875-4 1-2.139-2.139-2.427-3.133-3-6l-5-1-1-6-2-1c.454-4.197 1.272-5.917 5-8h3l-.313-2.188C-12.873 6.861-10.883 5.61-8 3c2-3 2-3 8-3z" transform="translate(37 308)" style="fill:#1e2425"/><path d="M0 0h2c1.125 4.75 1.125 4.75 0 7l2.3-1.313L7.314 4 10.3 2.312C13 1 13 1 16 1l2 8h2c-.615 4.306-1.59 5.984-4 10H-8V4h8V0z" transform="translate(257 174)" style="fill:#373b3b"/><path d="M0 0c6 2 6 2 7 6L5 8a89.901 89.901 0 0 0-1 6l8 3c1.37 8.344.25 14.887-2 23l-4 1v-2c-3.736 1.245-4.188 2.634-6 6h-2l3-12-3-1c.484-2.742 1.076-5.201 2.063-7.813C1.218 20.26 1.14 17.082 1 13l-3 9-2-1C-2.145 2.145-2.145 2.145 0 0z" transform="translate(435 328)" style="fill:#282d2c"/><path d="M0 0c2.468 1.517 4.69 3.3 6.938 5.125l1.88 1.502C16.163 12.602 22.205 17.833 21 28c-2.4 4-2.4 4-8 4-2.456-3.684-2.227-6.447-2.125-10.688L11 14h-23l4-4 1-3-4-2c6.311-6.311 6.311-6.311 11-5z" transform="translate(75 289)" style="fill:#252929"/><path d="M0 0h2l1 5 3 1c.561 6.62.07 8.424-5 13-.872 2.678-.872 2.678-1 5h3l.75-2.125C5.16 18.63 6.979 15.897 9 13c1.26 2.521.833 3.257.125 5.938C7.844 24.253 7.387 29.555 7 35c-3-1-3-1-4-4l-3-1v-4h-4l-.688 2.063C-6.356 31.796-8.558 34.721-11 38h-2c.658-3.297 1.894-5.841 3.563-8.75l1.378-2.422C-7 25-7 25-5 25v-5h-3l-1-6-4-1V8h-4V2h3l1 5 5-1v6h3l.813-2.625C-3.03 6.082-1.618 3.089 0 0z" transform="translate(476 462)" style="fill:#272e2f"/><path d="M0 0v6l-4 1v2c-5.75 3-5.75 3-8 3l-.75 1.813c-2.34 4.096-6.288 5.818-10.313 8.082a233.364 233.364 0 0 0-6.187 3.668l-1.953 1.19c-1.82 1.18-1.82 1.18-3.227 2.696-1.975 1.95-4.093 3.329-6.445 4.801l-2.555 1.64c-3.025 1.306-4.471 1.065-7.57.11l-1-4c2.386-1.892 4.072-3.024 7-4 1.336-1.33 2.67-2.664 4-4a126.037 126.037 0 0 1 5.375-3.5c3.007-1.867 5.964-3.735 8.875-5.75 2.506-1.595 4.948-2.664 7.691-3.77 3.672-1.748 7.011-4.04 10.41-6.261C-1.376 0-1.376 0 0 0z" transform="translate(63 262)" style="fill:#3a4040"/><path d="M0 0h54v1l-2.219.445c-15.316 3.173-30.928 6.419-45.61 11.89C4 14 4 14 0 14V0z" style="fill:#2b3233"/><path d="M0 0v15h-3V3c-5.794 1.491-5.794 1.491-6 8h2c-.48 4.325-1.658 6.23-5 9l-2.125.813c-2.259 1.138-2.259 1.138-2.813 4.5-1.225 4.253-2.78 5.806-6.062 8.687l-1.688 1.813C-26 37-26 37-28 37v2c-4.097 4.695-7.703 6.63-14 7l-2 1c.56-3.243 1.413-4.93 4-7h2v-2h3v-2l5-2-1-6 1.75-.188C-26.113 26.68-24.908 24.659-23 22h4v-7l3-1 1-3h2V9h2l.313-2.313C-9.928 3.717-9.504 2.727-7 1c2.36-.519 4.575-1 7-1z" transform="translate(354 193)" style="fill:#333736"/><path d="m0 0 1 5-2.177.959c-23.264 9.918-23.264 9.918-45.876 21.173C-49.668 28.298-51.3 27.75-54 27l-1-4c12.463-6.068 24.99-11.987 37.625-17.688l3.5-1.602 3.29-1.472L-7.682.927C-4.933-.023-2.883-.188 0 0z" transform="translate(58 90)" style="fill:#3b4141"/><path d="M0 0c4 3.5 4 3.5 4 8l-5 2v2h-3v2l-5 4c2.079 2.079 5.451.543 8 0 2.792-2.458 2.792-2.458 5-5h2v-2l1.715-1.242 2.223-1.633 2.214-1.617C14.111 5.12 14.111 5.12 15 3h3c-.444 4.289-2.42 4.966-6 7a282.478 282.478 0 0 0-5 5c-5.504 5-5.504 5-8 5l-2 6c-6.625 2-6.625 2-10 2l-1-2a78.037 78.037 0 0 0-5-2c1-4 1-4 1.781-5.781.349-3.534-1.604-5.236-3.718-7.969l-2.278-2.984L-25 5l1-2 11 12c4.614-1.65 4.614-1.65 5-7h-2l-1-5 8-1 2 5h2L0 0z" transform="translate(320 219)" style="fill:#242828"/><path d="M0 0v44l-4 2-1 5-3 1c-.178-6.44-.3-12.881-.385-19.324-.035-2.19-.082-4.38-.143-6.57a549.106 549.106 0 0 1-.156-9.458l-.11-2.955C-8.795 8.506-6.945 0 0 0z" transform="translate(255 243)" style="fill:#282b2a"/><path d="m0 0 2 5-1.873.807c-20.243 8.631-20.243 8.631-40.045 18.213l-1.947 1.003a680.87 680.87 0 0 0-5.307 2.79C-50 29-50 29-53 28v-6l33.81-15.026 4.636-2.062 2.421-1.077 2.191-.975C-3.486 0-3.486 0 0 0z" transform="translate(53 83)" style="fill:#3b4141"/><path d="m0 0 4 2C2.904 10.311.513 17.41-3 25l-1.332 2.945C-7.595 34.865-7.595 34.865-11 36l-3-1 2-8-1.813 1.063C-16 29-16 29-19 28c-1-3-1-3 1.125-5.457C-12.447 16.223-7.278 9.85-2.461 3.047-1 1-1 1 0 0z" transform="translate(421 341)" style="fill:#2a2f2f"/><path d="M0 0c0 3.687-.674 4.05-3.21 6.574l-2.024 2.022-2.141 2.091-2.117 2.127C-14.733 18-14.733 18-17 18v-2h-2v-3c-3.11 1.351-4.836 2.733-6.938 5.375-3.872 4.61-8.234 8.575-12.706 12.587C-41.736 33.647-41.736 33.647-44 37l-3-1 1.285-1.25a189.6 189.6 0 0 0 15.403-17.125C-28.143 15.162-26.846 14.373-24 13c2.543-3.432 2.16-6.862 2-11l-8 6c7.015-14.03 7.39-8 30-8z" transform="translate(237)" style="fill:#3c4343"/><path d="m0 0-2 2 1 1c.29 2.264.507 4.537.688 6.813l.324 3.769C0 16.835-.246 18.332-2 21l-5-1 1-5-2-2a462.18 462.18 0 0 0-4.375 3.25l-2.46 1.828C-16.969 19.972-17.947 21.383-19 24l-2.875-.938C-26.509 21.721-31.205 21.367-36 21a74.55 74.55 0 0 1 10-7l3.043-1.824 3.145-1.864 3.167-1.886C-14 7-14 7-12 7l1-3c2.066-1.387 2.066-1.387 4.563-2.688l2.503-1.324C-2-1-2-1 0 0z" transform="translate(124 221)" style="fill:#2e3434"/><path d="M0 0c.178 6.583.3 13.166.385 19.751.035 2.239.082 4.478.143 6.716.085 3.222.125 6.442.156 9.666l.11 3.021C.796 46.244-.947 49.262-7 53c-.168-6.657-.328-13.314-.482-19.97a4105.14 4105.14 0 0 0-.166-6.799c-.082-3.251-.157-6.503-.23-9.754l-.083-3.085-.06-2.85-.061-2.517C-8 6-8 6-7 4h2V2c3.875-2 3.875-2 5-2z" transform="translate(190 255)" style="fill:#242726"/><path d="m0 0 1 6-2.266 1.645a747417442.574 747417442.574 0 0 1-5.937 4.312 171.45 171.45 0 0 0-5.031 3.805C-14 17-14 17-16 17v2c-2.135 1.423-4.27 2.846-6.406 4.266a546.586 546.586 0 0 0-5.125 3.468l-2.407 1.641-2.214 1.523C-34 31-34 31-36 31v2c-3.435 2.29-4.985 2.178-9 2-1-5-1-5 1.148-6.77 2.746-2.147 5.536-4.05 8.477-5.918l2.852-1.824C-30 19-30 19-27 18l1-2c1.659-.686 3.327-1.35 5-2a92.122 92.122 0 0 0 4.25-2.813c3.838-2.636 7.762-4.886 11.902-7.011C-2.948 2.966-2.046 0 0 0z" transform="translate(64 272)" style="fill:#393f3f"/><path d="M0 0h6c1.388 4.164.028 5.066-2.313 8.688l-2.234 3.496-1.209 1.87c-1.279 2-2.523 4.018-3.76 6.044C-16.309 41-16.309 41-26 41c2.645-5.623 6.313-10.654 9.75-15.813l2.133-3.236c3.002-4.511 5.963-8.925 9.547-12.998C-1.978 5.974-.927 3.802 0 0z" transform="translate(440 459)" style="fill:#313838"/><path d="M0 0h11C7.25 3.875 7.25 3.875 5 5L4 8l-1.813.125c-3.98 1.592-4.778 5.587-6 9.438C-4.04 20.532-3.288 22.346-2 25h2l1 3h-3v11l-4-3 1-5h2c-3.98-10.492-3.98-10.492-14-14l-1.402-1.992c-2.121-2.666-3.27-2.468-6.598-2.508-4.327-.052-5.91-.595-8-4.5V4c3.55.592 3.85.774 6 4 2.034.395 2.034.395 4.313.375 4.73.343 6.694 1.86 9.687 5.625l3-7c3.734-.879 7.168-1.09 11-1L0 0z" transform="translate(192 215)" style="fill:#202525"/><path d="M0 0v4l-1.69.715C-13.23 9.608-24.67 14.635-36 20c-2.102.985-4.206 1.964-6.313 2.938l-2.613 1.214C-47 25-47 25-49 25v-7c5.246-2.433 10.486-4.837 15.875-6.938C-29.193 9.524-25.383 7.8-21.562 6-4.912-1.735-4.912-1.735 0 0z" transform="translate(49 78)" style="fill:#3b4141"/><path d="M0 0c2.02 2.215 2.02 2.215 3.813 4.938l1.832 2.714C7 10 7 10 7 12h2l2 6c-1.24.87-2.492 1.72-3.75 2.563l-2.11 1.44C2.48 23.243 1.64 23.26-1 22c-2.035-2.11-2.035-2.11-4.063-4.75l-2.035-2.61C-8.883 12.163-10.473 9.645-12 7c7-8 7-8 12-7z" transform="translate(210 216)" style="fill:#3b403f"/><path d="M0 0c2 2 2 2 2 12h21c-1.125 6.75-1.125 6.75-4.563 9.875l-1.94 1.805C15 25 15 25 12.98 24.336c-3.94-1.766-7.202-4.157-10.668-6.711l-2.048-1.46-1.963-1.438-1.776-1.295C-7.013 10.11-7.41 6.712-7 2-4.476-.524-3.458-.346 0 0z" transform="translate(413 260)" style="fill:#2e312f"/><path d="M0 0c.919 2.756 1.102 4.196 1.022 7.012L.96 9.44l-.082 2.604-.072 2.678c-.076 2.822-.16 5.644-.245 8.466l-.158 5.74C.017 42.99.017 42.99-7 47V5l4-2c1.71-1.541 1.71-1.541 3-3z" transform="translate(319 257)" style="fill:#212424"/><path d="M0 0c2 2 2 2 2 12h24c-1 4-1 4-4.75 5.25-3.558 1.319-5.792 2.78-8.25 5.75-4.491-.919-7.46-3.17-11.125-5.813l-1.918-1.33C-5.562 11.915-7.614 9.065-7 2-4.476-.524-3.458-.346 0 0z" transform="translate(93 260)" style="fill:#232828"/><path d="M0 0v3h6l-1 7h4c-.592 3.55-.774 3.85-4 6H1l-.313 3.813C-.001 25.223-.001 25.223-3 27h-4v-3h4l-3-11h-3a444.403 444.403 0 0 1-.125-5.375l-.07-3.023C-8.76-1.195-4.745-.176 0 0z" transform="translate(74 215)" style="fill:#292e2e"/><path d="m0 0 1 5c-12.32 5.365-24.641 10.725-37 16l-7 3v-3l3 1v-4h-2v-2c16.22-7.164 16.22-7.164 23.555-10.023a221.09 221.09 0 0 0 5.578-2.329l3.242-1.398 2.96-1.297C-4 0-4 0 0 0z" transform="translate(44 70)" style="fill:#3a4040"/><path d="M0 0h1v27c-5 2-5 2-8 2v2l-7 2-2-5 7-3 1-17 5-2c1.843-3.017 1.843-3.017 3-6z" transform="translate(278 143)" style="fill:#323534"/><path d="M0 0c8.088.849 12.987 13.345 16 20H1l-1-3h-2c-2.678-3.75-3.573-5.596-2-10 1.244-2.403 2.592-4.684 4-7z" transform="translate(192 223)" style="fill:#393d3d"/><path d="M0 0c1.703 1.777 1.703 1.777 3.25 3.938L4.828 6.09C6 8 6 8 6 10l-3.25 1.25C-2.583 13.556-5.154 16.46-7 22h-1V11h-15c3.802-3.802 6.87-5.854 11.5-8.313l2.012-1.126C-3.873-1.45-3.873-1.45 0 0z" transform="translate(286 232)" style="fill:#363a39"/><path d="M0 0c1.026 4.41 1.037 6.926-1 11h4v4h4c-1 4-1 4-4 5l-1-4h-3l-2-3-1.645 1.496-2.168 1.941-2.144 1.934C-11 20-11 20-14 21l-1 3h-2l-2 6 3 2v2l3 1-1 4h-3l-1-2h-4V20l3-1v2c5.43-.866 8.815-4.74 12-9 .748-2.715.81-5.163 1-8 3.1-4 3.1-4 6-4z" transform="translate(399 150)" style="fill:#343b3b"/></svg>